HIERARCHY
ROOT Hips
{
  OFFSET 0.00 0.00 0.00
  CHANNELS 6 Xposition Yposition Zposition Zrotation Xrotation Yrotation
  JOINT LeftUpLeg
  {
    OFFSET 3.43 0.00 0.00
    CHANNELS 3 Zrotation Xrotation Yrotation
    JOINT LeftLowLeg
    {
      OFFSET 0.0000 -18.47 0.00
      CHANNELS 3 Zrotation Xrotation Yrotation
      JOINT LeftFoot
      {
        OFFSET 0.00 -17.95 0.00
        CHANNELS 3 Zrotation Xrotation Yrotation
        End Site
        {
          OFFSET 0.00 -3.12 0.00
        }
      }
    }
  }
  JOINT RightUpLeg
  {
    OFFSET -3.43 0.00 0.00
    CHANNELS 3 Zrotation Xrotation Yrotation
    JOINT RightLowLeg
    {
      OFFSET 0.00 -18.47 0.00
      CHANNELS 3 Zrotation Xrotation Yrotation
      JOINT RightFoot
      {
        OFFSET 0.00 -17.95 0.00
        CHANNELS 3 Zrotation Xrotation Yrotation
        End Site
        {
          OFFSET 0.00 -3.12 0.00
        }
      }
    }
  }
  JOINT Chest
  {
    OFFSET 0.00 4.57 0.00
    CHANNELS 3 Zrotation Xrotation Yrotation
    JOINT LeftCollar
    {
      OFFSET 1.06 15.33 1.76
      CHANNELS 3 Zrotation Xrotation Yrotation
      JOINT LeftUpArm
      {
        OFFSET 5.81 0.00 0.00
        CHANNELS 3 Zrotation Xrotation Yrotation
        JOINT LeftLowArm
        {
          OFFSET 0.00 -12.08 0.00
          CHANNELS 3 Zrotation Xrotation Yrotation
          JOINT LeftHand
          {
            OFFSET 0.00 -9.82 0.00
            CHANNELS 3 Zrotation Xrotation Yrotation
            End Site
            {
              OFFSET 0.00 -7.37 0.00
            }
          }
        }
      }
    }
    JOINT RightCollar
    {
      OFFSET -1.06 15.33 1.76
      CHANNELS 3 Zrotation Xrotation Yrotation
      JOINT RightUpArm
      {
        OFFSET -5.81 0.00 0.00
        CHANNELS 3 Zrotation Xrotation Yrotation
        JOINT RightLowArm
        {
          OFFSET 0.00 -12.08 0.00
          CHANNELS 3 Zrotation Xrotation Yrotation
          JOINT RightHand
          {
            OFFSET 0.00 -9.82 0.00
            CHANNELS 3 Zrotation Xrotation Yrotation
            End Site
            {
              OFFSET 0.00 -7.37 0.00
            }
          }
        }
      }
    }
    JOINT Neck
    {
      OFFSET 0.00 17.62 0.00
      CHANNELS 3 Zrotation Xrotation Yrotation
      JOINT Head
      {
        OFFSET 0.00 5.19 0.00
        CHANNELS 3 Zrotation Xrotation Yrotation
        End Site
        {
          OFFSET 0.00 4.14 0.00
        }
      }
    }
  }
}
MOTION
Frames:	11
Frame Time:	0.033333
-32.97	-31.77	11.55	5.81	-5.72	-20.10	26.77	-61.13	22.06	179.67	66.79	-179.78	0.97	-27.56	9.12	-68.19	-65.31	-65.20	-179.25	80.10	179.34	-3.18	-18.60	-2.67	-0.93	41.80	0.22	8.91	2.66	-17.48	79.84	-26.16	36.17	179.51	-65.59	179.80	20.31	8.81	-59.12	7.68	0.74	1.60	-106.07	0.70	-38.79	-0.56	-68.69	-0.77	-7.78	16.32	0.41	17.57	-60.03	5.27	-22.83	22.99	4.12
-32.65	-31.73	11.18	3.82	-4.81	-18.32	26.59	-60.82	19.09	179.65	68.32	-179.76	-3.91	-31.05	8.44	-66.03	-65.06	-63.73	-179.13	81.57	179.21	-1.73	-17.16	-4.22	1.44	42.67	-2.08	14.29	1.69	-17.80	81.46	-28.81	44.00	179.26	-73.99	179.54	19.78	6.93	-57.53	12.08	1.02	1.79	-103.15	-0.06	-42.01	-0.84	-76.05	-1.07	-8.98	17.63	3.96	20.25	-60.76	6.28	-22.91	23.44	4.36
-32.18	-31.51	10.68	2.27	-3.79	-17.06	25.59	-61.11	16.75	179.62	70.38	-179.72	-8.08	-33.51	6.99	-64.42	-64.84	-63.01	-178.78	83.98	178.86	-0.58	-15.13	-4.71	3.18	43.11	-3.93	18.54	0.88	-17.56	84.20	-31.50	51.06	178.13	-83.77	178.39	19.90	5.01	-54.74	16.48	1.40	2.21	-99.38	-1.31	-44.05	-1.96	-84.06	-2.20	-10.40	18.75	7.61	22.17	-60.93	6.85	-22.63	23.63	4.49
-31.56	-31.09	10.08	1.30	-2.58	-16.42	23.45	-62.28	14.85	179.57	72.74	-179.67	-9.10	-33.98	6.54	-63.26	-64.60	-62.97	-177.10	87.46	177.18	0.16	-12.47	-3.96	4.18	43.05	-5.37	21.11	0.35	-16.57	88.01	-34.28	56.75	2.67	-85.63	2.91	20.73	3.22	-50.94	20.09	1.83	2.71	-94.47	-3.44	-44.61	-171.36	-88.65	-171.61	-11.62	18.92	10.66	22.85	-61.13	6.99	-21.77	24.07	4.54
-30.77	-30.45	9.37	0.92	-1.18	-16.73	20.79	-63.80	13.38	179.48	75.72	-179.58	-7.83	-32.73	7.71	-62.55	-64.36	-63.40	-4.07	88.19	4.15	0.67	-8.98	-1.74	4.38	42.46	-6.22	22.67	0.05	-15.89	90.74	-35.37	59.90	0.85	-76.18	1.08	22.48	2.01	-47.24	21.64	2.04	2.97	-87.24	-5.88	-42.80	-178.60	-81.63	-178.87	-12.46	18.33	12.92	22.53	-61.97	7.03	-20.49	25.28	4.65
-29.94	-29.72	8.58	0.94	0.26	-17.96	19.00	-64.96	12.89	179.31	79.29	-179.40	-6.63	-30.80	9.37	-61.38	-64.27	-62.96	-1.18	83.78	1.25	1.07	-5.66	1.10	3.75	41.50	-6.12	23.28	-0.08	-15.40	92.81	-35.71	60.90	0.54	-67.84	0.75	24.36	1.49	-43.72	21.65	2.03	2.95	-79.25	-7.87	-38.86	-179.16	-76.06	-179.43	-12.92	16.94	14.92	22.40	-63.02	7.39	-19.44	26.92	4.90
-29.17	-29.01	7.77	1.27	1.60	-20.12	18.89	-65.63	13.88	178.95	82.99	-179.04	-5.89	-28.77	11.05	-60.05	-64.56	-61.77	-0.78	80.49	0.84	1.49	-3.07	4.09	2.39	40.16	-5.04	23.31	-0.08	-15.38	93.40	-35.11	59.89	0.43	-61.52	0.63	25.66	1.84	-40.41	21.70	1.96	2.77	-72.44	-8.52	-33.60	-179.37	-71.22	-179.65	-13.10	15.48	17.27	23.02	-63.88	8.25	-19.15	28.63	5.44
-28.48	-28.33	6.89	1.77	2.70	-23.25	20.88	-65.68	16.79	177.70	86.80	-177.79	-5.59	-26.55	12.42	-57.88	-65.30	-58.84	-0.68	79.17	0.75	2.16	-1.88	6.39	0.38	38.24	-2.90	22.40	0.10	-16.09	92.53	-33.96	56.77	0.38	-57.38	0.57	26.01	2.78	-37.61	21.79	1.84	2.51	-67.99	-8.14	-28.17	-179.47	-67.47	-179.76	-13.04	14.57	19.90	24.85	-63.66	9.58	-20.17	29.73	6.44
-27.95	-27.73	5.99	2.26	3.41	-26.57	24.09	-65.20	20.70	21.86	89.66	-21.94	-5.57	-24.26	13.28	-55.02	-66.01	-54.20	-0.85	81.32	0.92	3.14	-2.93	6.72	-1.45	35.63	-0.45	20.04	0.61	-17.62	90.60	-32.35	52.27	0.36	-55.75	0.55	25.20	3.48	-35.83	21.81	1.80	2.41	-66.34	-7.41	-24.42	-179.52	-65.10	-179.81	-12.61	14.52	23.02	26.95	-61.87	10.50	-22.29	29.83	7.74
-27.54	-27.17	5.07	2.65	3.77	-29.50	26.98	-64.31	24.12	1.91	86.14	-1.98	-5.67	-21.81	13.81	-50.07	-65.30	-46.57	-1.46	84.98	1.54	4.53	-6.66	5.36	-2.64	32.76	1.58	16.38	1.46	-19.35	87.89	-30.06	47.06	0.37	-57.09	0.57	23.79	4.06	-35.16	21.61	1.86	2.57	-66.48	-6.83	-22.34	-179.54	-63.61	-179.84	-12.47	15.17	26.46	28.18	-59.16	10.47	-24.62	29.22	8.92
-27.22	-26.62	4.13	2.91	3.81	-31.68	28.76	-63.18	26.27	0.98	82.47	-1.05	-5.81	-19.18	14.18	-43.30	-62.59	-36.74	-7.22	88.98	7.30	4.43	-12.53	3.00	-3.07	29.81	2.86	11.33	2.67	-20.61	85.18	-27.72	41.54	0.41	-60.53	0.61	22.16	4.25	-35.62	20.78	2.00	3.00	-67.85	-6.86	-22.11	-179.55	-63.30	-179.85	-12.71	16.22	30.32	28.11	-55.97	9.53	-26.44	28.33	9.70
